<svg xmlns="http://www.w3.org/2000/svg" width="24" height="25" viewBox="0 0 24 25" fill="none">
  <path d="M19.8001 14.0998C19.8501 13.7498 19.9001 13.3998 19.9001 12.9998C19.9001 12.5998 19.8501 12.2498 19.8001 11.8998L22.0501 10.2998C22.2501 10.1498 22.3501 9.8498 22.2001 9.5998L20.0001 5.8998C19.8501 5.6498 19.6001 5.5498 19.3501 5.6998L16.8501 6.8498C16.2501 6.3998 15.6501 6.0498 14.9501 5.7498L14.7001 2.9998C14.6501 2.7498 14.4501 2.5498 14.2001 2.5498H9.90005C9.65005 2.5498 9.40005 2.7498 9.40005 2.9998L9.15005 5.7498C8.45005 6.0498 7.80005 6.3998 7.25005 6.8498L4.75005 5.6998C4.50005 5.5998 4.20005 5.6998 4.10005 5.8998L1.95005 9.5998C1.80005 9.8498 1.90005 10.1498 2.10005 10.2998L4.35005 11.8998C4.30005 12.2498 4.25005 12.5998 4.25005 12.9998C4.25005 13.3998 4.30005 13.7498 4.35005 14.0998L2.00005 15.6998C1.80005 15.8498 1.70005 16.1498 1.85005 16.3998L4.00005 20.0998C4.15005 20.3498 4.40005 20.4498 4.65005 20.2998L7.15005 19.1498C7.75005 19.5998 8.35005 19.9498 9.05005 20.2498L9.30005 22.9998C9.35005 23.2498 9.55005 23.4498 9.80005 23.4498H14.1001C14.3501 23.4498 14.6001 23.2498 14.6001 22.9998L14.8501 20.2498C15.5501 19.9498 16.2001 19.5998 16.7501 19.1498L19.2501 20.2998C19.5001 20.3998 19.8001 20.2998 19.9001 20.0998L22.0501 16.3998C22.2001 16.1498 22.1001 15.8498 21.9001 15.6998L19.8001 14.0998ZM12.0001 17.9998C9.25005 17.9998 7.00005 15.7498 7.00005 12.9998C7.00005 10.2498 9.25005 7.9998 12.0001 7.9998C14.7501 7.9998 17.0001 10.2498 17.0001 12.9998C17.0001 15.7498 14.7501 17.9998 12.0001 17.9998Z" fill="#9CBAE4"/>
  <path d="M12 7C8.7 7 6 9.7 6 13C6 16.3 8.7 19 12 19C15.3 19 18 16.3 18 13C18 9.7 15.3 7 12 7ZM12 15.5C10.6 15.5 9.5 14.4 9.5 13C9.5 11.6 10.6 10.5 12 10.5C13.4 10.5 14.5 11.6 14.5 13C14.5 14.4 13.4 15.5 12 15.5Z" fill="#827BA9"/>
</svg>